<?xml version="1.0" standalone="no"?><!DOCTYPE svg PUBLIC "-//W3C//DTD SVG 1.1//EN" "http://www.w3.org/Graphics/SVG/1.1/DTD/svg11.dtd"><svg t="1601175982212" class="icon" viewBox="0 0 1024 1024" version="1.1" xmlns="http://www.w3.org/2000/svg" p-id="1207" xmlns:xlink="http://www.w3.org/1999/xlink" width="200" height="200"><defs><style type="text/css"></style></defs><path d="M511.971431 1024c-282.269963 0-511.97143-229.701468-511.97143-511.97143s229.701468-511.97143 511.97143-511.97143 511.97143 229.701468 511.97143 511.97143-229.701468 511.97143-511.97143 511.97143z m0-938.621907c-235.255443 0-426.639049 191.383606-426.639049 426.650477s191.395034 426.581909 426.639049 426.581909 426.661905-191.383606 426.661905-426.581909S747.238302 85.320953 511.971431 85.320953z" fill="#EA3E31" p-id="1208"></path><path d="M511.971431 85.320953a425.119134 425.119134 0 0 0-63.996429 5.336845c204.937135 31.038268 362.665476 207.851258 362.665476 421.370772S652.912137 902.235366 447.975002 933.273634a425.119134 425.119134 0 0 0 63.996429 5.336845c235.255443 0 426.650477-191.383606 426.650477-426.639049S747.238302 85.320953 511.971431 85.320953z" fill="#FBDCDA" p-id="1209"></path><path d="M143.19201 548.106557a490.978316 490.978316 0 0 1-63.390748-4.079773 42.673047 42.673047 0 0 1 11.085095-84.623849c119.741889 15.701981 236.558228-23.232989 320.142135-106.828324 70.750338-70.761766 109.891011-165.705039 110.210993-267.322226a42.660477 42.660477 0 0 1 42.660477-42.534769h0.125707a42.660477 42.660477 0 0 1 42.534769 42.786184c-0.377122 124.324491-48.385871 240.592288-135.192456 327.398873-87.629396 87.560828-204.640009 135.203884-328.175972 135.203884zM460.077184 981.270956h-0.125707a42.660477 42.660477 0 0 1-42.546198-42.786184c0.377122-124.324491 48.397299-240.592288 135.203884-327.398873 102.497137-102.48571 245.209174-150.220189 391.555293-131.055544a42.671904 42.671904 0 0 1 36.77509 47.848759c-3.108398 23.347269-24.855756 39.392087-47.848758 36.763663-119.867597-15.8734-236.558228 23.210133-320.153563 106.828324-70.750338 70.773193-109.891011 165.705039-110.199565 267.322225a42.660477 42.660477 0 0 1-42.660476 42.47763z" fill="#EA3E31" p-id="1210"></path></svg>